<svg width="68" height="31" viewBox="0 0 68 31" fill="none" xmlns="http://www.w3.org/2000/svg">
    <rect x="1.5" y="1.5" width="65" height="28" stroke="white" stroke-width="3"/>
    <circle cx="43.5" cy="15.5" r="4" fill="white"/>
    <circle cx="54.5" cy="15.5" r="4" fill="white"/>
    <path d="M17.645 18.5C17.853 18.5 17.971 18.739 17.844 18.904L16.694 20.404C16.6707 20.4347 16.6406 20.4596 16.6061 20.4767C16.5716 20.4938 16.5335 20.5027 16.495 20.5027C16.4565 20.5027 16.4185 20.4938 16.384 20.4767C16.3494 20.4596 16.3193 20.4347 16.296 20.404L15.146 18.904C15.1174 18.8669 15.0998 18.8224 15.0952 18.7758C15.0906 18.7292 15.0991 18.6822 15.1198 18.6401C15.1405 18.5981 15.1726 18.5627 15.2124 18.5379C15.2522 18.5131 15.2981 18.5 15.345 18.5H17.645ZM13.095 14.15C13.1322 14.1214 13.1766 14.1039 13.2232 14.0992C13.2699 14.0946 13.3169 14.1031 13.3589 14.1238C13.401 14.1445 13.4364 14.1766 13.4611 14.2164C13.4859 14.2562 13.499 14.3021 13.499 14.349V16.649C13.499 16.6959 13.4859 16.7418 13.4611 16.7816C13.4364 16.8214 13.401 16.8535 13.3589 16.8742C13.3169 16.8949 13.2699 16.9034 13.2232 16.8988C13.1766 16.8942 13.1322 16.8766 13.095 16.848L11.595 15.698C11.5643 15.6747 11.5395 15.6446 11.5224 15.6101C11.5052 15.5756 11.4963 15.5375 11.4963 15.499C11.4963 15.4605 11.5052 15.4225 11.5224 15.388C11.5395 15.3534 11.5643 15.3233 11.595 15.3L13.095 14.15ZM19.495 14.35C19.495 14.142 19.734 14.024 19.899 14.151L21.399 15.301C21.4297 15.3243 21.4545 15.3544 21.4717 15.389C21.4888 15.4235 21.4977 15.4615 21.4977 15.5C21.4977 15.5385 21.4888 15.5766 21.4717 15.6111C21.4545 15.6456 21.4297 15.6757 21.399 15.699L19.899 16.849C19.8619 16.8776 19.8174 16.8952 19.7708 16.8998C19.7242 16.9044 19.6772 16.8959 19.6351 16.8752C19.5931 16.8545 19.5576 16.8224 19.5329 16.7826C19.5081 16.7428 19.495 16.6969 19.495 16.65V14.35ZM16.295 10.6C16.3183 10.5693 16.3484 10.5445 16.383 10.5274C16.4175 10.5102 16.4555 10.5013 16.494 10.5013C16.5325 10.5013 16.5706 10.5102 16.6051 10.5274C16.6396 10.5445 16.6697 10.5693 16.693 10.6L17.843 12.1C17.8716 12.1372 17.8892 12.1816 17.8938 12.2282C17.8984 12.2749 17.8899 12.3219 17.8692 12.3639C17.8485 12.406 17.8164 12.4414 17.7766 12.4661C17.7368 12.4909 17.6909 12.504 17.644 12.504H15.344C15.2971 12.504 15.2512 12.4909 15.2114 12.4661C15.1716 12.4414 15.1395 12.406 15.1188 12.3639C15.0981 12.3219 15.0896 12.2749 15.0942 12.2282C15.0988 12.1816 15.1164 12.1372 15.145 12.1L16.295 10.6Z" fill="white"/>
    <path d="M18.5 13.5H23.5V17.5H18.5V22.5H14.5V17.5H9.5V13.5H14.5V8.5H18.5V13.5Z" fill="white"/>
</svg>
