<svg width="68" height="31" viewBox="0 0 68 31" fill="none" xmlns="http://www.w3.org/2000/svg">
    <rect x="1.5" y="1.5" width="65" height="28" rx="14" stroke="white" stroke-width="3"/>
    <path d="M49.7505 9.59961C50.3512 9.59987 50.8384 10.0877 50.8384 10.6885C50.8381 11.289 50.351 11.7761 49.7505 11.7764C49.1498 11.7764 48.6619 11.2891 48.6616 10.6885C48.6616 10.0876 49.1496 9.59961 49.7505 9.59961Z" stroke="white" stroke-width="2.2" stroke-linecap="round" stroke-linejoin="round"/>
    <path d="M54.8125 14.6616C55.4132 14.6619 55.9004 15.1498 55.9004 15.7505C55.9001 16.351 55.413 16.8381 54.8125 16.8384C54.2118 16.8384 53.7239 16.3512 53.7236 15.7505C53.7236 15.1496 54.2116 14.6616 54.8125 14.6616Z" stroke="white" stroke-width="2.2" stroke-linecap="round" stroke-linejoin="round"/>
    <path d="M49.7505 19.7236C50.3512 19.7239 50.8384 20.2118 50.8384 20.8125C50.8381 21.413 50.351 21.9001 49.7505 21.9004C49.1498 21.9004 48.6619 21.4132 48.6616 20.8125C48.6616 20.2116 49.1496 19.7236 49.7505 19.7236Z" stroke="white" stroke-width="2.2" stroke-linecap="round" stroke-linejoin="round"/>
    <path d="M44.6885 14.6616C45.2891 14.6619 45.7764 15.1498 45.7764 15.7505C45.7761 16.351 45.289 16.8381 44.6885 16.8384C44.0877 16.8384 43.5999 16.3512 43.5996 15.7505C43.5996 15.1496 44.0876 14.6616 44.6885 14.6616Z" stroke="white" stroke-width="2.2" stroke-linecap="round" stroke-linejoin="round"/>
    <path d="M18.5 13.5H23.5V17.5H18.5V22.5H14.5V17.5H9.5V13.5H14.5V8.5H18.5V13.5Z" fill="white"/>
</svg>
