<svg width="24" height="24" viewBox="0 0 24 24" fill="none" xmlns="http://www.w3.org/2000/svg">
<path d="M9 15L6.032 17.968C5.70167 18.2983 5.28084 18.5232 4.8227 18.6143C4.36457 18.7054 3.88971 18.6586 3.45815 18.4799C3.0266 18.3011 2.65773 17.9984 2.39819 17.6101C2.13864 17.2217 2.00007 16.7651 2 16.298V15L3.357 8.216C3.53824 7.30922 4.02806 6.49325 4.74312 5.90691C5.45817 5.32058 6.35429 5.0001 7.279 5H16.721C17.6457 5.0001 18.5418 5.32058 19.2569 5.90691C19.9719 6.49325 20.4618 7.30922 20.643 8.216L22 15V16.297C21.9999 16.7641 21.8614 17.2207 21.6018 17.6091C21.3423 17.9974 20.9734 18.3001 20.5418 18.4789C20.1103 18.6576 19.6354 18.7044 19.1773 18.6133C18.7192 18.5222 18.2983 18.2973 17.968 17.967L15 15H9Z" stroke="white" stroke-linecap="round" stroke-linejoin="round"/>
<path d="M9 5L10 7H14L15 5" stroke="white" stroke-linecap="round" stroke-linejoin="round"/>
<path d="M17.1464 7.14645C17.2402 7.05268 17.3674 7 17.5 7C17.6326 7 17.7598 7.05268 17.8536 7.14645C17.9473 7.24021 18 7.36739 18 7.5C18 7.63261 17.9473 7.75979 17.8536 7.85355C17.7598 7.94732 17.6326 8 17.5 8C17.3674 8 17.2402 7.94732 17.1464 7.85355C17.0527 7.75979 17 7.63261 17 7.5C17 7.36739 17.0527 7.24021 17.1464 7.14645Z" fill="white"/>
<path d="M16.1464 8.14645C16.2402 8.05268 16.3674 8 16.5 8C16.6326 8 16.7598 8.05268 16.8536 8.14645C16.9473 8.24021 17 8.36739 17 8.5C17 8.63261 16.9473 8.75979 16.8536 8.85355C16.7598 8.94732 16.6326 9 16.5 9C16.3674 9 16.2402 8.94732 16.1464 8.85355C16.0527 8.75979 16 8.63261 16 8.5C16 8.36739 16.0527 8.24021 16.1464 8.14645Z" fill="white"/>
<path d="M18.1464 8.14645C18.2402 8.05268 18.3674 8 18.5 8C18.6326 8 18.7598 8.05268 18.8536 8.14645C18.9473 8.24021 19 8.36739 19 8.5C19 8.63261 18.9473 8.75979 18.8536 8.85355C18.7598 8.94732 18.6326 9 18.5 9C18.3674 9 18.2402 8.94732 18.1464 8.85355C18.0527 8.75979 18 8.63261 18 8.5C18 8.36739 18.0527 8.24021 18.1464 8.14645Z" fill="white"/>
<path d="M17.1464 9.14645C17.2402 9.05268 17.3674 9 17.5 9C17.6326 9 17.7598 9.05268 17.8536 9.14645C17.9473 9.24021 18 9.36739 18 9.5C18 9.63261 17.9473 9.75979 17.8536 9.85355C17.7598 9.94732 17.6326 10 17.5 10C17.3674 10 17.2402 9.94732 17.1464 9.85355C17.0527 9.75979 17 9.63261 17 9.5C17 9.36739 17.0527 9.24021 17.1464 9.14645Z" fill="white"/>
<path d="M6 8V7H7V8H8V9H7V10H6V9H5V8H6Z" fill="white"/>
<circle cx="15" cy="12" r="1.25" fill="transparent" stroke="white" stroke-width="0.5"/>
<circle cx="9" cy="12" r="1.25" fill="transparent" stroke="white" stroke-width="0.5"/>
</svg>
